<svg xmlns="http://www.w3.org/2000/svg" viewBox="0 0 203.71 64"><defs><style>.cls-1{fill:#2c3e50;}.cls-2{fill:#f9b01c;}.cls-3{fill:#6ec9b5;}.cls-4{fill:#4cc4e6;}.cls-5{fill:#e6622c;}.cls-6{fill:#8bc446;}</style></defs><title>Ресурс 102</title><g id="Слой_2" data-name="Слой 2"><g id="MAIN"><path class="cls-1" d="M96.6,42.44c-1.16-2.79-2.81-5.33-4.19-8-.38-.74-.73-.45-1.08,0-1.41,1.91-3.25,3.63-2.64,6.4.22,1-.28,1.33-1.3,1.34-2.92,0-2.92.09-2.92-2.89,0-5.61,0-11.22,0-16.82,0-1.25.28-1.64,1.57-1.6,2.75.08,2.76,0,2.76,2.76v7.44a6.28,6.28,0,0,0,1.77-2c1.63-2.14,3.3-4.25,4.79-6.49a3.66,3.66,0,0,1,3.44-1.72h2.71C99.89,23,98.28,25.26,97,26.79c-1.76,2.18-2.15,4.07-.45,6.53a81.86,81.86,0,0,1,4.24,7.62c.26.48.66.94.18,1.5Z"/><path class="cls-1" d="M197.31,42.44c-.33,0-.4-2-.3-3,.12-1.24-.41-1.49-1.53-1.46-3.55,0-4.9,0-7.73,0-1.11,0-1.35-.37-1.21-1.38.71-4.93,1.38-9.86,2.05-14.8.09-.71.43-.88,1.1-.93,3.28-.24,3.31-.25,2.89,3-.36,2.78-.74,5.55-1.24,8.31-.23,1.24.11,1.5,1.31,1.5,4.34,0,4.34,0,4.34-4.33,0-1.73,0-3.47,0-5.21,0-.87.28-1.13,1.15-1.17,3.18-.13,3.18-.16,3.18,3v6.56c0,.56-.08,1.1.8,1.1,1.61,0,1.61,1.14,1.61,2,0,1.06,0,2.2-1.13,2.2s-1.31.61-1.3,1.56.08,3-.26,3Z"/><path class="cls-1" d="M162.49,42c-3.43-1.16-5-3.32-5.18-6.87-.06-.9,0-1.8,0-2.69s.45-2.42-1.48-2.17c-.31,0-.46-.28-.47-.59,0-.78,0-1.57,0-2.35-.11-1.33.88-1,1.57-1.12s.4-.6.41-1c0-1.34.07-2.69,0-4-.06-1.05.32-1.46,1.34-1.31h.17c3,0,2.52-.31,2.54,2.43,0,3.93,0,3.93,3.92,3.93,2.14,0,3,1.37,2.28,3.52-.22.62-.66.51-1.08.51-1.35,0-2.69,0-4,0-.79,0-1.13.27-1.08,1.07,0,.45,0,.9,0,1.34,0,4.73.35,5.13,5.06,5.34.88,0,1.25.32,1.14,1.18-.14,1.06.24,3-.57,3.06A10.62,10.62,0,0,1,162.49,42Z"/><path class="cls-1" d="M102.66,42.44c0-4.87,0-9.75.08-14.63,0-.5-.34-1.21.39-1.46s1,.42,1.26.87c.44.7.83.88,1.59.33,2-1.44,4.35-1.27,6.65-1.25.55,0,.74.22.83.78.42,2.91.16,3.25-2.71,3.27s-3.88,1-3.91,3.83c0,2.19,0,4.38,0,6.56,0,.62.2,1.7-.47,1.7Z"/><path class="cls-1" d="M149.45,42.44a.29.29,0,0,1-.3-.3c0-4.71.17-9.42,0-14.13,0-1.88.87-1.74,2.13-1.75s2.29-.13,2.11,2a78.18,78.18,0,0,0-.05,12.05c.05.69.26,2-.2,2.08Z"/><path class="cls-1" d="M176.69,42.43c-2,0-3.93,0-5.89,0-.91,0-1.32-.23-1.28-1.22.06-1.68,0-3.36,0-5,.15-3.81,2.51-6.21,6.34-6.49.67-.06,1.34,0,2,0a2,2,0,0,0,2.16-2.06,1.94,1.94,0,0,0-2.14-2.08c-2,0-4-.09-6.05,0-1.18,0-1.53-.31-1.51-1.5,0-2.84,0-2.84,2.83-2.84,1.62,0,3.25,0,4.87,0A6.38,6.38,0,1,1,177.94,34a20,20,0,0,0-2.19,0,2.86,2.86,0,0,0-1.94,3.82c.29.49.79.35,1.21.35,2.47,0,4.94,0,7.4,0,1.07,0,1.45.25,1.44,1.39,0,2.88,0,2.88-2.8,2.88Z"/><path class="cls-1" d="M151.26,19.28a3,3,0,0,1,2.82,2.59,2.73,2.73,0,0,1-5.46.16A2.89,2.89,0,0,1,151.26,19.28Z"/><path class="cls-1" d="M146.15,40.73c0-6.35,0-12.69,0-19,0-1.36-.42-1.65-1.7-1.65h-1c-1.08,0-1.47.3-1.42,1.41.09,1.82,0,3.65,0,5.69A12.6,12.6,0,0,0,139.62,26c-5.45-1.35-10.64,4-9.52,9.8a7.66,7.66,0,0,0,5.19,6.3c1.7.62,5.39.44,7.22-1.13.94-.81,1.56-.51,2,.33.25.46.55,1.14,1.25.89S146.15,41.23,146.15,40.73Zm-8-2.22a4.22,4.22,0,0,1-4-4.32,4,4,0,0,1,3.85-4.27,4.3,4.3,0,0,1,.18,8.59Z"/><path class="cls-1" d="M125.19,37.08a3.69,3.69,0,0,1-3.81,1.21c2.27-2.73,4.3-5.32,6.49-7.76,1.07-1.19.92-1.92-.23-2.82A8,8,0,0,0,119,26.39a7.76,7.76,0,0,0-4.8,7.47,8.11,8.11,0,0,0,4.53,7.83,7.42,7.42,0,0,0,3.13.75,8.94,8.94,0,0,0,4.55-1.09c2.75-1.61,2.78-2.07.56-4.28C126.29,36.4,125.91,36.15,125.19,37.08Zm-1.84-7c-1.53,2-3,3.94-4.6,6.1C117.56,32.15,119.67,29.36,123.35,30.06Z"/><path class="cls-2" d="M42.24,45.14H37.1c-.72,0-.88-.61-1.14-1.09-1.69-3.09-3.37-6.19-5.17-9.51a55.45,55.45,0,0,0-3.7,5.06c-.7,1.22-.26,2.75-.23,4.14,0,1.12-.35,1.42-1.44,1.43-3.9.06-3.9.09-3.9-3.77,0-7,0-14,0-21,0-1.13.25-1.54,1.47-1.54,3.86,0,3.86,0,3.86,3.86v8.66l.33.12,5-6.65c1.14-1.53,2.34-3,3.39-4.61a2.73,2.73,0,0,1,2.79-1.37c1.27.1,2.55,0,4.18,0-1,1.36-1.8,2.46-2.62,3.56-1.57,2.11-3.09,4.27-4.76,6.31A2,2,0,0,0,35,31.37c2.3,4.11,4.53,8.25,6.78,12.39A2,2,0,0,1,42.24,45.14Z"/><path class="cls-3" d="M4,59.06V36.6a.89.89,0,0,0-.9-.89H.9a.89.89,0,0,0-.9.89V63.1a.9.9,0,0,0,.9.9H27.4a.89.89,0,0,0,.89-.9V60.86a.89.89,0,0,0-.89-.9H4.94A.9.9,0,0,1,4,59.06Z"/><path class="cls-4" d="M60,59.06V36.6a.89.89,0,0,1,.9-.89H63.1a.89.89,0,0,1,.9.89V63.1a.9.9,0,0,1-.9.9H36.6a.89.89,0,0,1-.89-.9V60.86a.89.89,0,0,1,.89-.9H59.06A.9.9,0,0,0,60,59.06Z"/><path class="cls-5" d="M4,4.94V27.4a.89.89,0,0,1-.9.89H.9A.89.89,0,0,1,0,27.4V.9A.9.9,0,0,1,.9,0H27.4a.89.89,0,0,1,.89.9V3.14a.89.89,0,0,1-.89.9H4.94A.9.9,0,0,0,4,4.94Z"/><path class="cls-6" d="M60,4.94V27.4a.89.89,0,0,0,.9.89H63.1a.89.89,0,0,0,.9-.89V.9a.9.9,0,0,0-.9-.9H36.6a.89.89,0,0,0-.89.9V3.14a.89.89,0,0,0,.89.9H59.06A.9.9,0,0,1,60,4.94Z"/></g></g></svg>